<svg preserveAspectRatio="none" width="100%" height="100%" overflow="visible" style="display: block;" viewBox="0 0 1440 1281.6" fill="none" xmlns="http://www.w3.org/2000/svg">
<path id="Vector" opacity="0.16" d="M0 93.6H1440M0 741.6H1440M0 165.6H1440M0 237.6H1440M0 201.6H1440M0 273.6H1440M0 417.6H1440M0 489.6H1440M0 345.6H1440M0 381.6H1440M0 453.6H1440M0 525.6H1440M0 597.6H1440M0 669.6H1440M0 633.6H1440M0 705.6H1440M0 885.6H1440M0 561.6H1440M0 309.6H1440M0 777.6H1440M0 813.6H1440M0 849.6H1440M0 921.6H1440M0 57.6H1440M0 129.6H1440M0 21.6H1440M396 1281.6V0M288 1281.6V0M72 1281.6V0M504 1281.6V0M720 1281.6V0M936 1281.6V0M1152 1281.6V0M612 1281.6V0M828 1281.6V0M1044 1281.6V0M180 1281.6V0M1260 1281.6V0M1368 1281.6V0" stroke="var(--stroke-0, #2E3238)" stroke-width="0.9"/>
</svg>
