<svg preserveAspectRatio="none" width="100%" height="100%" overflow="visible" style="display: block;" viewBox="0 0 242.206 26.0357" fill="none" xmlns="http://www.w3.org/2000/svg">
<g id="Vector">
<path d="M3.25446 14.1027L0 20.6116L6.50893 19.5268L5.42411 26.0357L11.933 22.7812L13.0179 13.0179L3.25446 14.1027Z" fill="#6EA8FF"/>
<path d="M17.8996 8.67857V26.0357L26.0357 20.0692L24.9509 1.08482L4.8817 0L0 8.67857H17.8996Z" fill="#6EA8FF"/>
<path d="M54.6961 20.5074V4.93073H49.4535V2.27384H62.9196V4.93073H57.6771V20.5074H54.6961Z" fill="white"/>
<path d="M39.0536 20.6116V18.085L41.9318 17.9547V4.82654L39.0536 4.6963V2.16964L43.4223 2.37803L47.7911 2.16964V4.6963L44.9129 4.82654V17.9547L47.7911 18.085V20.6116L43.4223 20.4032L39.0536 20.6116Z" fill="white"/>
<path d="M154.293 17.7187V8.31696L156.847 5.78571H167.063V13.8444H157.316V17.6671H166.541V20.25H156.847L154.293 17.7187ZM157.316 11.933L164.326 11.6747V8.2653H157.316V11.933Z" fill="white"/>
<path d="M151.527 5.78571V20.25H140.895L138.289 17.6671V5.78571H141.312V17.6154H148.504V5.78571H151.527Z" fill="white"/>
<path d="M123.113 23.8661V21.2832H132.338V18.1837H124.78L122.227 15.6524V8.31696L124.989 5.78571H135.361V21.0765L132.546 23.8661H123.113ZM125.25 8.36862V15.6524H132.338V8.36862H125.25Z" fill="white"/>
<path d="M106.496 17.6671V11.9847L116.451 11.7264V8.36862H107.017V5.78571H116.868L119.474 8.36862V20.25H109.102L106.496 17.6671ZM109.519 14.1543V17.7187H116.451V13.6378L109.519 14.1543Z" fill="white"/>
<path d="M91.229 17.7187V8.31696L93.7829 5.78571H103.999V13.8444H94.252V17.6671H103.477V20.25H93.7829L91.229 17.7187ZM94.252 11.933L101.262 11.6747V8.2653H94.252V11.933Z" fill="white"/>
<path d="M75.9375 20.25V2.16964H78.9605V17.6671H86.3877V13.0179H89.1761V20.25H75.9375Z" fill="white"/>
<path d="M189.97 10.8482V1.34518H192.664C193.532 1.34518 194.209 1.56214 194.695 1.99607C195.19 2.43 195.437 3.03316 195.437 3.80555C195.437 4.23948 195.346 4.617 195.164 4.93811C194.981 5.25921 194.721 5.50655 194.383 5.68012C194.053 5.8537 193.654 5.93614 193.185 5.92746V5.7322C193.688 5.72352 194.122 5.81898 194.487 6.01859C194.86 6.2182 195.146 6.50459 195.346 6.87777C195.554 7.25095 195.658 7.69355 195.658 8.20559C195.658 8.74366 195.546 9.2123 195.32 9.61152C195.094 10.0107 194.773 10.3188 194.357 10.5358C193.94 10.7441 193.441 10.8482 192.86 10.8482H189.97ZM191.115 9.79377H192.729C193.276 9.79377 193.706 9.65057 194.018 9.36418C194.339 9.06911 194.5 8.66989 194.5 8.16653C194.5 7.64582 194.339 7.22491 194.018 6.9038C193.706 6.57402 193.276 6.40912 192.729 6.40912H191.115V9.79377ZM191.115 5.39373H192.651C193.155 5.39373 193.549 5.25921 193.836 4.99018C194.131 4.72114 194.279 4.35664 194.279 3.89668C194.279 3.43671 194.135 3.07221 193.849 2.80318C193.563 2.53414 193.168 2.39962 192.664 2.39962H191.115V5.39373Z" fill="var(--fill-0, #A5ADBA)"/>
<path d="M199.845 10.9784C199.09 10.9784 198.496 10.7875 198.062 10.4056C197.628 10.0151 197.411 9.49002 197.411 8.83045C197.411 8.1622 197.628 7.63714 198.062 7.25528C198.496 6.87343 199.081 6.6825 199.819 6.6825H202.032V5.96652C202.032 5.52391 201.898 5.18545 201.629 4.95112C201.368 4.70812 200.995 4.58662 200.509 4.58662C200.084 4.58662 199.728 4.67775 199.442 4.86C199.155 5.03357 198.99 5.27223 198.947 5.57598H197.775C197.853 4.9598 198.144 4.46946 198.647 4.10496C199.151 3.74046 199.78 3.55821 200.535 3.55821C201.359 3.55821 202.01 3.77084 202.488 4.19609C202.965 4.62134 203.204 5.19846 203.204 5.92746V10.8482H202.058V9.48134H201.863L202.058 9.28607C202.058 9.80678 201.854 10.219 201.446 10.5228C201.047 10.8265 200.513 10.9784 199.845 10.9784ZM200.131 10.0541C200.687 10.0541 201.143 9.91527 201.498 9.63755C201.854 9.35984 202.032 9.00402 202.032 8.57009V7.5547H199.845C199.455 7.5547 199.146 7.66318 198.921 7.88014C198.695 8.09711 198.582 8.39218 198.582 8.76536C198.582 9.16457 198.717 9.48134 198.986 9.71566C199.264 9.9413 199.645 10.0541 200.131 10.0541Z" fill="var(--fill-0, #A5ADBA)"/>
<path d="M208.328 10.9784C207.755 10.9784 207.251 10.8699 206.818 10.6529C206.392 10.436 206.063 10.1236 205.828 9.71566C205.594 9.29909 205.477 8.80875 205.477 8.24464V6.29196C205.477 5.71918 205.594 5.22884 205.828 4.82095C206.063 4.41305 206.392 4.10062 206.818 3.88366C207.251 3.6667 207.755 3.55821 208.328 3.55821C209.152 3.55821 209.816 3.77952 210.319 4.22212C210.823 4.66473 211.087 5.26789 211.113 6.03161H209.942C209.916 5.57164 209.76 5.22016 209.473 4.97716C209.195 4.72548 208.814 4.59964 208.328 4.59964C207.816 4.59964 207.408 4.74718 207.104 5.04225C206.8 5.32864 206.648 5.74087 206.648 6.27895V8.24464C206.648 8.78271 206.8 9.19928 207.104 9.49436C207.408 9.78943 207.816 9.93696 208.328 9.93696C208.814 9.93696 209.195 9.81112 209.473 9.55945C209.76 9.30777 209.916 8.95629 209.942 8.505H211.113C211.087 9.26871 210.823 9.87187 210.319 10.3145C209.816 10.7571 209.152 10.9784 208.328 10.9784Z" fill="var(--fill-0, #A5ADBA)"/>
<path d="M213.413 10.8482V1.34518H214.584V6.64345H215.964L218.047 3.68839H219.388L216.979 7.09907L219.427 10.8482H218.06L215.977 7.65884H214.584V10.8482H213.413Z" fill="var(--fill-0, #A5ADBA)"/>
<path d="M223.887 10.9784C223.323 10.9784 222.828 10.8656 222.403 10.6399C221.986 10.4143 221.661 10.0975 221.426 9.68962C221.201 9.27305 221.088 8.79139 221.088 8.24464V6.29196C221.088 5.73653 221.201 5.25487 221.426 4.84698C221.661 4.43909 221.986 4.12232 222.403 3.89668C222.828 3.67104 223.323 3.55821 223.887 3.55821C224.451 3.55821 224.941 3.67104 225.358 3.89668C225.783 4.12232 226.109 4.43909 226.334 4.84698C226.568 5.25487 226.686 5.73653 226.686 6.29196V7.5547H222.234V8.24464C222.234 8.80875 222.377 9.24268 222.663 9.54643C222.95 9.8415 223.357 9.98904 223.887 9.98904C224.338 9.98904 224.703 9.91093 224.98 9.75471C225.258 9.58982 225.427 9.34682 225.488 9.02571H226.66C226.582 9.62453 226.286 10.1019 225.774 10.4577C225.271 10.8048 224.642 10.9784 223.887 10.9784ZM225.54 6.77362V6.29196C225.54 5.72786 225.397 5.29393 225.11 4.99018C224.833 4.68643 224.425 4.53455 223.887 4.53455C223.357 4.53455 222.95 4.68643 222.663 4.99018C222.377 5.29393 222.234 5.72786 222.234 6.29196V6.66948H225.631L225.54 6.77362Z" fill="var(--fill-0, #A5ADBA)"/>
<path d="M228.985 10.8482V3.68839H230.156V5.05527H230.404L230.156 5.32864C230.156 4.76454 230.326 4.33061 230.664 4.02686C231.002 3.71443 231.471 3.55821 232.07 3.55821C232.79 3.55821 233.363 3.77952 233.788 4.22212C234.214 4.66473 234.426 5.26789 234.426 6.03161V10.8482H233.255V6.16179C233.255 5.64975 233.116 5.25921 232.838 4.99018C232.569 4.71246 232.2 4.57361 231.731 4.57361C231.245 4.57361 230.859 4.72114 230.573 5.01621C230.295 5.31128 230.156 5.73653 230.156 6.29196V10.8482H228.985Z" fill="var(--fill-0, #A5ADBA)"/>
<path d="M239.082 10.9784C238.37 10.9784 237.793 10.7397 237.35 10.2624C236.916 9.78509 236.699 9.13853 236.699 8.32275V6.22687C236.699 5.40241 236.916 4.75152 237.35 4.2742C237.784 3.79687 238.361 3.55821 239.082 3.55821C239.672 3.55821 240.145 3.71877 240.5 4.03987C240.856 4.36098 241.034 4.79057 241.034 5.32864L240.8 5.05527H241.06L241.034 3.42803V1.34518H242.206V10.8482H241.034V9.48134H240.8L241.034 9.20796C241.034 9.75471 240.856 10.1886 240.5 10.5097C240.145 10.8222 239.672 10.9784 239.082 10.9784ZM239.472 9.963C239.958 9.963 240.34 9.81112 240.618 9.50737C240.895 9.20362 241.034 8.78271 241.034 8.24464V6.29196C241.034 5.75389 240.895 5.33298 240.618 5.02923C240.34 4.72548 239.958 4.57361 239.472 4.57361C238.977 4.57361 238.587 4.72114 238.3 5.01621C238.014 5.31128 237.871 5.73653 237.871 6.29196V8.24464C237.871 8.80007 238.014 9.22532 238.3 9.52039C238.587 9.81546 238.977 9.963 239.472 9.963Z" fill="var(--fill-0, #A5ADBA)"/>
</g>
</svg>
