<svg preserveAspectRatio="none" width="100%" height="100%" overflow="visible" style="display: block;" viewBox="0 0 82.5 86.5493" fill="none" xmlns="http://www.w3.org/2000/svg">
<path id="Vector 2567" d="M63.25 74.2771L69.25 77.2771L82.25 71.7771V24.2771L31.75 0.277051L19.25 6.27705V23.4868M82.25 24.2771L69.25 29.7771M69.25 77.2771V29.7771M69.25 29.7771L19.25 6.27705M6.5 65.7771L0.25 68.7771V80.7771L12.75 86.2771L25.75 80.7771M0.25 68.7771L12.75 74.2771M12.75 86.2771V74.2771M6.5 65.7771L12.75 62.7771L25.75 68.7771V80.7771M44.75 77.7771L31.75 83.2771L25.75 80.7771M25.75 68.7771L12.75 74.2771M12.75 44.6827L6.5 47.2771V65.7771M6.5 47.2771L31.75 59.7771M44.75 77.7771V53.7771L19.75 41.7771L12.75 44.6827M44.75 53.7771L31.75 59.7771M63.25 74.2771L50.25 80.7771L44.75 77.7771M31.75 83.2771V59.7771M50.25 80.7771V44.2771M50.25 44.2771L63.25 38.7771M50.25 44.2771L12.75 26.7771M19.25 23.4868L24.75 20.7771L63.25 38.7771V74.2771M19.25 23.4868L12.75 26.7771V44.6827" stroke="var(--stroke-0, white)" stroke-width="0.5"/>
</svg>
