<svg preserveAspectRatio="none" width="100%" height="100%" overflow="visible" style="display: block;" viewBox="0 0 154 24" fill="none" xmlns="http://www.w3.org/2000/svg">
<g id="Logo">
<g id="Vector 2564">
<path d="M3 13L0 19L6 18L5 24L11 21L12 12L3 13Z" fill="var(--fill-0, #6EA8FF)"/>
<path d="M16.5 8V24L24 18.5L23 1L4.5 0L0 8H16.5Z" fill="var(--fill-0, #6EA8FF)"/>
</g>
<g id="Frame 2147238714">
<g id="Vector">
<path d="M50.4194 18.904V4.5452H45.5868V2.09605H58V4.5452H53.1674V18.904H50.4194Z" fill="var(--fill-0, white)"/>
<path d="M36 19V16.6709L38.6532 16.5508V4.44915L36 4.3291V2L40.0272 2.19209L44.0544 2V4.3291L41.4012 4.44915V16.5508L44.0544 16.6709V19L40.0272 18.8079L36 19Z" fill="var(--fill-0, white)"/>
</g>
<g id="Vector_2">
<path d="M142.229 16.3333V7.66667L144.583 5.33333H154V12.7619H145.016V16.2857H153.52V18.6667H144.583L142.229 16.3333ZM145.016 11L151.478 10.7619V7.61905H145.016V11Z" fill="var(--fill-0, white)"/>
<path d="M139.68 5.33333V18.6667H129.878L127.476 16.2857V5.33333H130.263V16.2381H136.893V5.33333H139.68Z" fill="var(--fill-0, white)"/>
<path d="M113.487 22V19.619H121.991V16.7619H115.024L112.67 14.4286V7.66667L115.216 5.33333H124.777V19.4286L122.183 22H113.487ZM115.456 7.71429V14.4286H121.991V7.71429H115.456Z" fill="var(--fill-0, white)"/>
<path d="M98.1694 16.2857V11.0476L107.346 10.8095V7.71429H98.6499V5.33333H107.73L110.133 7.71429V18.6667H100.572L98.1694 16.2857ZM100.956 13.0476V16.3333H107.346V12.5714L100.956 13.0476Z" fill="var(--fill-0, white)"/>
<path d="M84.0959 16.3333V7.66667L86.4501 5.33333H95.867V12.7619H86.8825V16.2857H95.3865V18.6667H86.4501L84.0959 16.3333ZM86.8825 11L93.3446 10.7619V7.61905H86.8825V11Z" fill="var(--fill-0, white)"/>
<path d="M70 18.6667V2H72.7866V16.2857H79.6331V12H82.2035V18.6667H70Z" fill="var(--fill-0, white)"/>
</g>
</g>
</g>
</svg>
