<svg preserveAspectRatio="none" width="100%" height="100%" overflow="visible" style="display: block;" viewBox="0 0 434 448.002" fill="none" xmlns="http://www.w3.org/2000/svg">
<g id="Illustration">
<path id="Vector" d="M216.793 447.502C163.354 447.502 138.324 434.101 128.275 426.294C124.184 423.116 122.546 418.04 122.546 412.859V348.594C122.546 348.594 137.682 339.402 164.515 323.87C191.348 308.337 190.87 271.161 158.984 252.294C99.3403 217.001 69.1836 154.879 69.1836 44.7148" stroke="var(--stroke-0, #E6EAF0)" stroke-opacity="0.4"/>
<path id="Vector_2" d="M216.795 447.502C270.234 447.502 295.264 434.101 305.313 426.294C309.403 423.116 311.042 418.04 311.042 412.859V348.594C311.042 348.594 294.643 338.672 269.073 323.87C243.502 309.067 242.718 271.161 274.604 252.294C334.247 217.001 364.404 154.879 364.404 44.7148" stroke="var(--stroke-0, #E6EAF0)" stroke-opacity="0.4"/>
<path id="Vector_3" d="M71.8871 89.7852H51.6397C-10.1318 89.7852 -24.7799 170.233 61.8734 207.485C115.574 230.573 158.985 252.287 158.985 252.287" stroke="var(--stroke-0, #E6EAF0)" stroke-opacity="0.4"/>
<path id="Vector_4" d="M216.793 83.9598C298.316 83.9598 364.403 65.2767 364.403 42.2299C364.403 19.1831 298.316 0.5 216.793 0.5C135.271 0.5 69.1836 19.1831 69.1836 42.2299C69.1836 65.2767 135.271 83.9598 216.793 83.9598Z" stroke="var(--stroke-0, #E6EAF0)" stroke-opacity="0.4"/>
<path id="Vector_5" d="M121.52 347.684C127.125 352.199 158.303 369.383 218.085 369.383" stroke="var(--stroke-0, #E6EAF0)" stroke-opacity="0.4"/>
<path id="Vector_6" d="M361.699 89.7852H381.947C443.718 89.7852 458.366 170.233 371.713 207.485C318.012 230.573 274.601 252.287 274.601 252.287" stroke="var(--stroke-0, #E6EAF0)" stroke-opacity="0.4"/>
<path id="Vector_7" d="M311.395 347.684C305.979 352.199 275.851 369.383 218.085 369.383" stroke="var(--stroke-0, #E6EAF0)" stroke-opacity="0.4"/>
<rect id="Rectangle 34624279" x="64.0146" y="36.3047" width="10.85" height="10.8495" fill="var(--fill-0, white)"/>
<rect id="Rectangle 34624280" x="66.1846" y="85.125" width="10.85" height="10.8495" fill="var(--fill-0, white)"/>
<rect id="Rectangle 34624281" x="150.815" y="244.613" width="10.85" height="10.8495" fill="var(--fill-0, white)"/>
<rect id="Rectangle 34624286" x="118.265" y="345.516" width="10.85" height="10.8495" fill="var(--fill-0, white)"/>
<rect id="Rectangle 34624282" x="272.335" y="244.613" width="10.85" height="10.8495" fill="var(--fill-0, white)"/>
<rect id="Rectangle 34624285" x="303.8" y="345.516" width="10.85" height="10.8495" fill="var(--fill-0, white)"/>
<rect id="Rectangle 34624283" x="358.05" y="85.125" width="10.85" height="10.8495" fill="var(--fill-0, white)"/>
<rect id="Rectangle 34624284" x="359.135" y="36.3047" width="10.85" height="10.8495" fill="var(--fill-0, white)"/>
</g>
</svg>
