<svg preserveAspectRatio="none" width="100%" height="100%" overflow="visible" style="display: block;" viewBox="0 0 48 48" fill="none" xmlns="http://www.w3.org/2000/svg">
<g id="Icon-medal-one">
<path id="Vector" d="M6 6L16 18" stroke="var(--stroke-0, #6EA8FF)" stroke-width="1.5" stroke-linecap="round" stroke-linejoin="round"/>
<path id="Vector_2" d="M42 6L32 18" stroke="var(--stroke-0, #6EA8FF)" stroke-width="1.5" stroke-linecap="round" stroke-linejoin="round"/>
<path id="Vector_3" d="M31 4L26 16" stroke="var(--stroke-0, #6EA8FF)" stroke-width="1.5" stroke-linecap="round" stroke-linejoin="round"/>
<path id="Vector_4" d="M17 4L22 16" stroke="var(--stroke-0, #6EA8FF)" stroke-width="1.5" stroke-linecap="round" stroke-linejoin="round"/>
<path id="Vector_5" d="M24 44C31.732 44 38 37.732 38 30C38 22.268 31.732 16 24 16C16.268 16 10 22.268 10 30C10 37.732 16.268 44 24 44Z" stroke="var(--stroke-0, #6EA8FF)" stroke-width="1.5"/>
<path id="Vector_6" d="M24 37C27.866 37 31 33.866 31 30C31 26.134 27.866 23 24 23C20.134 23 17 26.134 17 30C17 33.866 20.134 37 24 37Z" stroke="var(--stroke-0, #6EA8FF)" stroke-width="1.5"/>
</g>
</svg>
