<svg preserveAspectRatio="none" width="100%" height="100%" overflow="visible" style="display: block;" viewBox="0 0 48 48" fill="none" xmlns="http://www.w3.org/2000/svg">
<g id="Icon-people">
<path id="Vector" d="M24 20C27.866 20 31 16.866 31 13C31 9.13401 27.866 6 24 6C20.134 6 17 9.13401 17 13C17 16.866 20.134 20 24 20Z" stroke="var(--stroke-0, #575757)" stroke-width="1.5" stroke-linecap="round" stroke-linejoin="round"/>
<path id="Vector_2" d="M12 7.25391C10.1865 8.51886 9 10.6204 9 12.9992C9 15.5455 10.3596 17.7743 12.3924 18.9992" stroke="var(--stroke-0, #575757)" stroke-width="1.5" stroke-linecap="round" stroke-linejoin="round"/>
<path id="Vector_3" d="M36 7.25391C37.8135 8.51886 39 10.6204 39 12.9992C39 15.3779 37.8135 17.4796 36 18.7445" stroke="var(--stroke-0, #575757)" stroke-width="1.5" stroke-linecap="round" stroke-linejoin="round"/>
<path id="Vector_4" d="M12 40V42H36V40C36 36.2725 36 34.4087 35.391 32.9385C34.5791 30.9783 33.0217 29.4209 31.0615 28.609C29.5913 28 27.7275 28 24 28C20.2725 28 18.4087 28 16.9385 28.609C14.9783 29.4209 13.4209 30.9783 12.609 32.9385C12 34.4087 12 36.2725 12 40Z" stroke="var(--stroke-0, #575757)" stroke-width="1.5" stroke-linecap="round" stroke-linejoin="round"/>
<path id="Vector_5" d="M43.999 41.9991V40.7991C43.999 36.3187 43.999 34.0785 43.1271 32.3672C42.3601 30.8619 41.1362 29.6381 39.6309 28.8711" stroke="var(--stroke-0, #575757)" stroke-width="1.5" stroke-linecap="round" stroke-linejoin="round"/>
<path id="Vector_6" d="M4 41.9991V40.7991C4 36.3187 4 34.0785 4.87195 32.3672C5.63893 30.8619 6.86278 29.6381 8.36807 28.8711" stroke="var(--stroke-0, #575757)" stroke-width="1.5" stroke-linecap="round" stroke-linejoin="round"/>
</g>
</svg>
