<svg preserveAspectRatio="none" width="100%" height="100%" overflow="visible" style="display: block;" viewBox="0 0 28 28" fill="none" xmlns="http://www.w3.org/2000/svg">
<g id="Icon-game">
<path id="Vector" d="M22.4651 5.56148C20.3269 3.55848 17.4523 2.33203 14.2913 2.33203C7.68696 2.33203 2.33301 7.68598 2.33301 14.2904C2.33301 20.8947 7.68696 26.2487 14.2913 26.2487C17.5666 26.2487 20.5344 24.9319 22.6941 22.7989L13.9997 13.9987L22.4651 5.56148Z" stroke="var(--stroke-0, #A5ADBA)" stroke-linejoin="round"/>
<path id="Vector_2" d="M23.3333 16.3346C24.622 16.3346 25.6667 15.2899 25.6667 14.0013C25.6667 12.7127 24.622 11.668 23.3333 11.668C22.0447 11.668 21 12.7127 21 14.0013C21 15.2899 22.0447 16.3346 23.3333 16.3346Z" stroke="var(--stroke-0, #A5ADBA)" stroke-linejoin="round"/>
<path id="Vector_3" d="M9.91699 7.58203V12.2487" stroke="var(--stroke-0, #A5ADBA)" stroke-linecap="round" stroke-linejoin="round"/>
<path id="Vector_4" d="M7.58301 9.91797H12.2497" stroke="var(--stroke-0, #A5ADBA)" stroke-linecap="round" stroke-linejoin="round"/>
</g>
</svg>
